{"title":"8.Mile.2002.1080p.BRRip.XviD.AC3.RoHardSubbed-RSB","uid":6187879,"size":5968114486,"categoryP":"video","categoryS":"hd___movies","magnet":"?xt=urn:btih:1c2b1855c2e0c95b8a7583d7e2fc0c318116f7fb&amp;dn=8.Mile.2002.1080p.BRRip.XviD.AC3.RoHardSubbed-RSB&amp;tr=udp%3A%2F%2Ftracker.openbittorrent.com%3A80&amp;tr=udp%3A%2F%2Fopen.demonii.com%3A1337&amp;tr=udp%3A%2F%2Ftracker.coppersurfer.tk%3A6969&amp;tr=udp%3A%2F%2Fexodus.desync.com%3A6969","seeders":0,"leechers":0,"uploader":"RealSB","files":6,"time":1298177874,"description":"\n\n[size=3][b][font=arial]\n8.Mile.2002.1080p.BRRip.XviD.AC3.RoHardSubbed-RSB:\n\n\nScreens:\n\n\n\n\nPlot:\n\nA rap version of &quot;Saturday Night Fever.&quot; B-Rabbit, a wannabe rapper from the wrong side of Detroit's 8 Mile, has problems: he dumps his girlfriend when she tells him she's pregnant; to save money to make a demo tape, he moves into his alcoholic mom's trailer; his job's a dead end, and he's just choked at the local head-to-head rap contest. Things improve when he meets Alex - an aspiring model headed for New York - and a fast-talking pal promises to set up the demo. Then new setbacks: Alex isn't faithful, mom rejects him, rifts surface with his friends, and he's mugged by rivals. Everything hinges on the next rap showdown at the club. Can B-Rabbit pull truth out of his cap?\n\n\nCast:\n\nEminem\t... \tJimmy 'B-Rabbit' Smith\nBrittany Murphy\t... \tAlex\nMekhi Phifer\t... \tDavid 'Future' Porter\nKim Basinger\t... \tStephanie Smith\nEvan Jones\t... \tCheddar Bob\nOmar Benson Miller\t... \tSol George\nDe'Angelo Wilson\t... \tDJ Iz\nEugene Byrd\t... \tWink\nTaryn Manning\t... \tJaneane\nLarry Hudson\t... \tBouncer\nProof\t... \tLil' Tic\nMike Bell\t... \tShorty Mike\nDJ Head\t... \tBattle DJ\nMichael Shannon\t... \tGreg Buehl\nChloe Greenfield\t... \tLily Smith\nMary Hannigan\t... \tMrs. Helgeland\nAnthony Mackie\t... \tPapa Doc\nStrike\t... \tLyckety-Splyt\nNashawn 'Ox' Breedlove\t... \tLotto\nNa'Keya Snoddy\t... \tPapa Doc's Girl\n\n\nSOURCE: 8.Mile.2002.1080p.BluRay.DTS.x264-DON\n\nAUDIO LANGUAGE: English\n\n\nFormat                           : AVI\nFile size                        : 5.49 GiB\nDuration                         : 1h 50mn\nOverall bit rate                 : 7 112 Kbps\n\nVideo\nFormat                           : MPEG-4 Visual\nFormat settings, BVOP            : 1\nFormat settings, QPel            : No\nFormat settings, GMC             : No warppoints\nCodec ID/Hint                    : XviD\nDuration                         : 1h 50mn\nBit rate                         : 6 912 Kbps\nWidth                            : 1 920 pixels\nHeight                           : 1 080 pixels\nDisplay aspect ratio             : 16:9\nFrame rate                       : 23.976 fps\nColor space                      : YUV\nChroma subsampling               : 4:2:0\nBit depth                        : 8 bits\nScan type                        : Progressive\nBits/(Pixel*Frame)               : 0.139\nStream size                      : 5.33 GiB (97%)\n\nAudio\nFormat                           : AC-3\nFormat/Info                      : Audio Coding 3\nMode extension                   : CM (complete main)\nDuration                         : 1h 50mn\nBit rate mode                    : Constant\nBit rate                         : 192 Kbps\nChannel(s)                       : 6 channels\nChannel positions                : Front: L C R, Side: L R, LFE\nSampling rate                    : 48.0 KHz\nBit depth                        : 16 bits\nStream size                      : 152 MiB (3%)\nAlignment                        : Split accross interleaves\nInterleave, duration             : 42 ms (1.00 video frame)\nInterleave, preload duration     : 500 ms\n\n\n          EnJoY iT ! :)\n\n\n[/size][/b][/font]","torrent":{"xt":"urn:btih:1c2b1855c2e0c95b8a7583d7e2fc0c318116f7fb","amp;dn":"8.Mile.2002.1080p.BRRip.XviD.AC3.RoHardSubbed-RSB","amp;tr":["udp%3A%2F%2Ftracker.openbittorrent.com%3A80","udp%3A%2F%2Fopen.demonii.com%3A1337","udp%3A%2F%2Ftracker.coppersurfer.tk%3A6969","udp%3A%2F%2Fexodus.desync.com%3A6969"],"infoHash":"1c2b1855c2e0c95b8a7583d7e2fc0c318116f7fb","infoHashBuffer":{"type":"Buffer","data":[28,43,24,85,194,224,201,91,138,117,131,215,226,252,12,49,129,22,247,251]},"announce":[],"urlList":[]}}